<svg version="1.1" id="Layer_1" xmlns="http://www.w3.org/2000/svg" xmlns:xlink="http://www.w3.org/1999/xlink" x="0px" y="0px"
 viewBox="0 0 181 257" enable-background="new 0 0 181 257" xml:space="preserve">
<path fill="#FEFEFE" opacity="1.000000" stroke="none" 
	d="
M182.000000,125.000000 
	C182.000000,168.500000 181.961426,211.500107 182.083618,254.499756 
	C182.092102,257.483032 181.482529,258.088501 178.499847,258.082764 
	C120.500053,257.971222 62.499943,257.971222 4.500159,258.082733 
	C1.517485,258.088470 0.914412,257.482147 0.918065,254.499893 
	C1.020134,171.166702 1.020134,87.833313 0.918065,4.500100 
	C0.914412,1.517872 1.517485,0.911520 4.500159,0.917255 
	C62.499943,1.028779 120.500053,1.028779 178.499847,0.917256 
	C181.482529,0.911520 182.093216,1.516823 182.083862,4.500263 
	C181.958618,44.499870 182.000000,84.500000 182.000000,125.000000 
z"/>
<path fill="#242424" opacity="1.000000" stroke="none" 
	d="
M92.951103,126.834686 
	C96.561592,127.079048 99.718094,127.101570 102.874481,127.135696 
	C103.838318,127.146126 105.035324,126.903328 105.087608,128.387146 
	C105.137871,129.813309 104.047691,129.749680 103.019180,129.812119 
	C99.563805,130.021988 94.880951,128.288528 92.993294,130.569839 
	C91.247513,132.679688 92.421646,137.193893 92.276642,140.647842 
	C92.237793,141.573303 92.475067,142.831512 90.951904,142.745819 
	C89.782372,142.680008 90.001411,141.612762 89.932411,140.849380 
	C89.607498,137.254608 91.501656,132.487717 89.081268,130.384705 
	C87.063858,128.631836 82.439560,129.878159 78.969795,129.798706 
	C77.987831,129.776230 76.805634,129.946747 76.758316,128.511795 
	C76.710945,127.075035 77.860481,127.201294 78.861595,127.122536 
	C82.441986,126.840828 87.185013,128.716171 89.276672,126.286858 
	C91.031624,124.248596 89.797234,119.656158 89.943008,116.196976 
	C89.974136,115.457993 89.665924,114.372765 90.835625,114.210190 
	C92.355026,113.999023 92.250313,115.214340 92.276268,116.165627 
	C92.371269,119.648933 92.426720,123.133324 92.951103,126.834686 
z"/>
<path fill="#4E4A4B" opacity="1.000000" stroke="none" 
	d="
M17.549524,12.606071 
	C14.536901,12.751948 11.052203,11.481865 11.460247,16.298809 
	C11.515578,16.951992 10.955062,17.511372 10.178715,17.519562 
	C9.327999,17.528538 9.189337,16.857540 8.987971,16.210922 
	C7.580259,11.690518 8.833905,9.986790 13.609419,9.971463 
	C15.102622,9.966671 16.609396,9.846865 18.085072,10.007836 
	C19.423126,10.153794 21.780933,9.174729 21.851858,11.044696 
	C21.946360,13.536214 19.390686,12.259769 17.549524,12.606071 
z"/>
<path fill="#332F30" opacity="1.000000" stroke="none" 
	d="
M17.881475,246.839813 
	C19.556154,247.013748 20.983416,246.375198 22.466722,248.600266 
	C17.999552,249.487915 13.902249,249.133835 9.862412,248.901428 
	C8.824887,248.841736 8.536536,240.683670 9.583424,240.250626 
	C10.824569,239.737244 11.566744,240.535843 11.354883,241.705200 
	C10.392797,247.015442 13.587933,247.272003 17.881475,246.839813 
z"/>
<path fill="#383435" opacity="1.000000" stroke="none" 
	d="
M11.451008,167.141647 
	C10.801102,169.875748 13.094221,173.815948 9.968291,174.172714 
	C8.154400,174.379715 9.488436,169.991867 9.023650,167.726242 
	C8.959143,167.411804 8.948048,167.055893 9.025774,166.747818 
	C9.465328,165.005630 7.965859,161.773987 10.168975,161.770401 
	C12.596492,161.766434 10.950578,164.983978 11.451008,167.141647 
z"/>
<path fill="#343031" opacity="1.000000" stroke="none" 
	d="
M172.983795,116.910393 
	C172.523392,119.275558 174.049545,122.855247 171.928619,122.852470 
	C169.259140,122.848984 171.138794,119.383110 170.602249,117.516762 
	C170.514893,117.212860 170.521729,116.844734 170.600998,116.536072 
	C171.134628,114.457787 169.348450,110.608032 171.807999,110.600830 
	C174.275452,110.593605 172.381714,114.427574 172.983795,116.910393 
z"/>
<path fill="#363233" opacity="1.000000" stroke="none" 
	d="
M9.020261,190.650177 
	C9.173397,189.358704 8.575000,188.099609 9.997152,187.844131 
	C11.042066,187.656418 11.417590,188.442001 11.418985,189.358078 
	C11.423995,192.646683 11.446988,195.936829 11.339998,199.222366 
	C11.323873,199.717560 10.701752,200.546204 10.274222,200.605804 
	C9.177486,200.758743 9.055838,199.782059 9.045835,198.960831 
	C9.013786,196.329742 9.025384,193.698120 9.020261,190.650177 
z"/>
<path fill="#343031" opacity="1.000000" stroke="none" 
	d="
M172.983795,169.931580 
	C172.983780,170.872803 173.084335,171.397278 172.964478,171.865295 
	C172.634354,173.154266 173.898972,175.525208 171.818588,175.522125 
	C169.824890,175.519180 170.706390,173.158035 170.627991,171.815826 
	C170.492538,169.496475 170.582306,167.163254 170.599518,164.836014 
	C170.606812,163.851440 170.544922,162.585007 171.917297,162.658691 
	C173.353928,162.735809 172.928940,164.097824 172.966034,165.001282 
	C173.027344,166.494934 172.983398,167.992920 172.983795,169.931580 
z"/>
<path fill="#343031" opacity="1.000000" stroke="none" 
	d="
M170.590118,142.920502 
	C171.182755,140.481003 169.230026,136.919968 171.983185,136.711548 
	C173.868149,136.568848 172.567749,140.288742 172.974533,142.233093 
	C173.040527,142.548523 173.062180,142.913315 172.971100,143.215057 
	C172.373917,145.193588 174.341904,148.782425 171.650497,148.906357 
	C169.594940,149.001007 171.039017,145.299759 170.590118,142.920502 
z"/>
<path fill="#343031" opacity="1.000000" stroke="none" 
	d="
M9.025328,138.401276 
	C9.259105,136.975388 8.468691,135.308609 10.266828,135.320053 
	C11.539454,135.328110 11.409565,136.699341 11.419703,137.657318 
	C11.447648,140.297516 11.472114,142.939056 11.413609,145.578201 
	C11.390544,146.618622 11.870200,148.214813 10.032619,148.114319 
	C8.581613,148.034958 9.070146,146.648483 9.046401,145.770645 
	C8.983953,143.461899 9.025126,141.150375 9.025328,138.401276 
z"/>
<path fill="#343031" opacity="1.000000" stroke="none" 
	d="
M172.976715,59.879063 
	C172.973373,63.252071 172.989929,66.222031 172.935547,69.190681 
	C172.924820,69.776718 173.038773,70.597992 172.112610,70.733276 
	C171.005981,70.894920 170.664612,70.146629 170.653793,69.272758 
	C170.613007,65.974609 170.295563,62.629913 170.736771,59.391903 
	C171.077728,56.889500 172.308090,56.645569 172.976715,59.879063 
z"/>
<path fill="#363233" opacity="1.000000" stroke="none" 
	d="
M9.020102,61.347015 
	C9.023787,60.089272 9.005555,59.262852 9.037291,58.438354 
	C9.069605,57.598812 9.168808,56.687927 10.315912,56.816528 
	C11.033004,56.896919 11.389890,57.523205 11.392364,58.251587 
	C11.403575,61.552818 11.416203,64.854248 11.388383,68.155273 
	C11.380963,69.035629 11.058402,69.793251 9.970448,69.698242 
	C9.067060,69.619347 9.084733,68.830589 9.069640,68.217300 
	C9.016850,66.072151 9.031241,63.925354 9.020102,61.347015 
z"/>
<path fill="#332F30" opacity="1.000000" stroke="none" 
	d="
M170.594696,39.806431 
	C171.379700,36.918488 168.769699,32.836899 172.039185,32.258556 
	C173.701950,31.964426 172.513885,36.712875 172.972702,39.132835 
	C173.032944,39.450569 173.060669,39.814312 172.967514,40.114559 
	C172.497437,41.629494 174.095413,44.439205 171.664673,44.462978 
	C169.776413,44.481445 170.928619,41.726295 170.594696,39.806431 
z"/>
<path fill="#363233" opacity="1.000000" stroke="none" 
	d="
M11.441655,34.540176 
	C11.434892,37.265736 11.441919,39.569691 11.413953,41.873219 
	C11.403410,42.741589 11.138997,43.612186 10.111650,43.577614 
	C8.992388,43.539955 9.047274,42.522358 9.037882,41.733456 
	C9.006539,39.100697 8.929126,36.462566 9.064743,33.836578 
	C9.121469,32.738197 8.200616,30.674372 10.305341,30.826891 
	C12.096066,30.956656 11.225366,32.930439 11.441655,34.540176 
z"/>
<path fill="#4B4849" opacity="1.000000" stroke="none" 
	d="
M169.483856,12.825481 
	C168.044144,12.429103 166.615143,12.993510 166.063736,11.566731 
	C165.640839,10.472454 166.488953,9.959460 167.366730,10.047039 
	C169.086411,10.218618 171.041901,9.139404 172.485992,10.883491 
	C172.684799,11.123593 172.803635,11.494894 172.818390,11.812023 
	C172.922974,14.059679 173.960770,17.929741 172.265625,18.174276 
	C168.716705,18.686234 171.742065,14.341249 169.483856,12.825481 
z"/>
<path fill="#383435" opacity="1.000000" stroke="none" 
	d="
M121.806068,12.491302 
	C119.378044,12.484502 117.382790,12.490637 115.387924,12.465232 
	C114.497154,12.453889 113.659950,12.167132 113.712730,11.118483 
	C113.770172,9.977254 114.768898,10.049213 115.577110,10.042890 
	C118.237183,10.022075 120.902924,9.931793 123.555122,10.076512 
	C124.658424,10.136715 126.666130,9.213767 126.601456,11.350927 
	C126.555588,12.866873 124.821709,12.380082 123.734634,12.482534 
	C123.240196,12.529131 122.737785,12.491059 121.806068,12.491302 
z"/>
<path fill="#383435" opacity="1.000000" stroke="none" 
	d="
M67.045029,10.028477 
	C69.742233,10.546645 73.947495,8.908998 73.900314,11.175323 
	C73.846306,13.769893 69.774185,11.943611 67.532066,12.481049 
	C67.217377,12.556480 66.850227,12.562278 66.539360,12.479757 
	C64.785980,12.014314 61.535553,13.612511 61.548759,11.177322 
	C61.560642,8.985956 64.836296,10.486756 67.045029,10.028477 
z"/>
<path fill="#332F30" opacity="1.000000" stroke="none" 
	d="
M92.256256,249.098328 
	C90.412750,248.969910 88.904945,249.435364 86.422546,247.855087 
	C91.840096,246.209473 96.130211,246.858704 101.830391,247.197906 
	C98.136147,250.083252 95.264488,248.629120 92.256256,249.098328 
z"/>
<path fill="#363233" opacity="1.000000" stroke="none" 
	d="
M89.721085,10.037004 
	C92.921730,10.035828 95.705513,10.025585 98.489082,10.045749 
	C99.280014,10.051478 100.259933,9.958819 100.346863,11.082863 
	C100.427322,12.123274 99.628304,12.448957 98.744225,12.452237 
	C95.469955,12.464387 92.194557,12.485497 88.921875,12.407312 
	C88.041420,12.386277 87.288559,11.785233 87.734032,10.807258 
	C87.920502,10.397870 88.761002,10.286394 89.721085,10.037004 
z"/>
<path fill="#312D2E" opacity="1.000000" stroke="none" 
	d="
M9.033131,89.036842 
	C9.711145,86.784790 7.447631,83.450859 10.371259,83.330345 
	C12.342258,83.249084 11.004805,86.651207 11.410605,88.444191 
	C11.481783,88.758675 11.499979,89.127197 11.407965,89.429802 
	C10.760990,91.557533 12.940275,95.334930 9.950165,95.544235 
	C8.058960,95.676620 9.563886,91.607666 9.033131,89.036842 
z"/>
<path fill="#363233" opacity="1.000000" stroke="none" 
	d="
M40.154488,10.034006 
	C43.047562,10.481129 47.800888,9.343901 47.541683,10.943823 
	C46.985893,14.374392 42.944775,11.662642 40.524586,12.467954 
	C40.228088,12.566612 39.857811,12.539570 39.543232,12.471451 
	C38.059883,12.150247 35.323460,13.311007 35.345333,11.370486 
	C35.373459,8.875422 38.197445,10.560817 40.154488,10.034006 
z"/>
<path fill="#332F30" opacity="1.000000" stroke="none" 
	d="
M172.980927,223.750595 
	C172.634216,225.455826 173.828690,227.678085 171.756119,227.756989 
	C170.008499,227.823517 170.681488,225.731232 170.626587,224.553894 
	C170.519867,222.265472 170.546555,219.966827 170.621002,217.675781 
	C170.654526,216.643784 170.235809,214.967102 171.931961,215.095505 
	C173.553848,215.218307 172.888763,216.880768 172.949936,217.893280 
	C173.058426,219.688721 172.980743,221.495438 172.980927,223.750595 
z"/>
<path fill="#343031" opacity="1.000000" stroke="none" 
	d="
M11.433928,220.906952 
	C10.769261,223.119675 12.990821,226.405136 9.949110,226.502747 
	C8.239967,226.557587 9.375554,223.172562 9.033522,221.370636 
	C8.973269,221.053192 8.962425,220.699966 9.035064,220.388000 
	C9.527013,218.275131 8.079607,214.215958 9.954059,214.351425 
	C12.915355,214.565445 10.792351,218.333847 11.433928,220.906952 
z"/>
<path fill="#363233" opacity="1.000000" stroke="none" 
	d="
M145.134369,12.481248 
	C144.356445,12.480916 144.008026,12.550748 143.700500,12.468214 
	C142.433578,12.128192 140.088470,13.376328 140.131348,11.192669 
	C140.173187,9.062531 142.476379,10.205457 143.749542,10.087947 
	C145.873886,9.891876 148.032455,9.969409 150.170731,10.064303 
	C151.180679,10.109124 152.895203,9.528999 152.819214,11.273910 
	C152.750793,12.845059 151.102219,12.411609 150.031586,12.462481 
	C148.551666,12.532800 147.065918,12.480905 145.134369,12.481248 
z"/>
<path fill="#363233" opacity="1.000000" stroke="none" 
	d="
M9.020152,113.278893 
	C9.395262,111.596085 8.139583,109.312492 10.358222,109.356026 
	C12.030025,109.388832 11.500665,111.527489 11.388011,112.706207 
	C11.088844,115.836418 12.427410,119.195320 10.158426,122.683266 
	C8.249850,119.509453 9.359896,116.517532 9.020152,113.278893 
z"/>
<path fill="#332F30" opacity="1.000000" stroke="none" 
	d="
M170.637543,200.145111 
	C170.607269,196.729904 170.604630,193.737244 170.614716,190.744614 
	C170.617615,189.884048 170.750763,189.008835 171.812744,188.922897 
	C172.602005,188.859039 172.946365,189.483063 172.946671,190.204239 
	C172.948151,193.694687 173.195389,197.216782 172.796127,200.662842 
	C172.581741,202.513245 171.350769,201.941788 170.637543,200.145111 
z"/>
<path fill="#312D2E" opacity="1.000000" stroke="none" 
	d="
M170.348862,245.986160 
	C170.554001,244.924805 170.528656,244.257202 170.617126,243.605042 
	C170.754517,242.592209 170.170059,240.943237 172.070297,241.187622 
	C173.457016,241.365952 172.888596,242.745056 172.957108,243.620300 
	C173.402832,249.313751 172.101868,250.169449 166.050995,248.148560 
	C166.724609,245.881409 169.058121,247.515686 170.348862,245.986160 
z"/>
<path fill="#282425" opacity="1.000000" stroke="none" 
	d="
M71.470428,249.071045 
	C67.786652,248.805435 64.416962,249.658829 61.275337,248.045670 
	C65.247345,246.230057 69.382904,247.003662 73.445656,247.023056 
	C74.173805,247.026535 74.614845,247.966629 74.130081,248.415375 
	C73.622490,248.885269 72.667908,248.872299 71.470428,249.071045 
z"/>
<path fill="#282425" opacity="1.000000" stroke="none" 
	d="
M119.161011,249.071899 
	C117.029114,248.886978 115.176735,249.551468 112.367424,247.507721 
	C117.984177,246.520615 122.306107,246.882050 127.725410,247.083847 
	C124.699707,250.127686 121.952805,248.610657 119.161011,249.071899 
z"/>
<path fill="#2E2B2C" opacity="1.000000" stroke="none" 
	d="
M170.626221,89.068558 
	C170.629791,87.771042 170.605698,86.949989 170.644104,86.131866 
	C170.688431,85.187332 170.560867,83.970413 172.019165,84.127457 
	C173.077499,84.241432 172.949219,85.276817 172.954895,86.051353 
	C172.976532,89.002396 172.982925,91.953865 172.953827,94.904770 
	C172.944641,95.835144 173.084274,97.074493 171.603287,96.894577 
	C170.578125,96.770027 170.655365,95.745987 170.643906,94.956688 
	C170.617752,93.153519 170.629700,91.349808 170.626221,89.068558 
z"/>
<path fill="#262223" opacity="1.000000" stroke="none" 
	d="
M47.584274,247.227158 
	C43.870708,250.952972 39.457451,248.305710 35.151150,248.110001 
	C39.047798,246.421692 43.161892,247.036011 47.584274,247.227158 
z"/>
<path fill="#262223" opacity="1.000000" stroke="none" 
	d="
M145.047668,246.875671 
	C147.970627,247.125122 150.580734,246.291138 154.160522,248.088852 
	C148.589737,249.683609 144.312851,248.903564 139.311569,248.885269 
	C141.048767,246.079315 143.018494,247.178329 145.047668,246.875671 
z"/>
</svg>