<?xml version="1.0" encoding="UTF-8"?><svg xmlns="http://www.w3.org/2000/svg" xmlns:xlink="http://www.w3.org/1999/xlink" height="23.2" preserveAspectRatio="xMidYMid meet" version="1.0" viewBox="3.4 0.4 17.2 23.2" width="17.2" zoomAndPan="magnify"><g id="change1_1"><path d="M20.223,17.254l-7.739,6.192c-0.019,0.015-0.043,0.019-0.063,0.032c-0.043,0.029-0.088,0.05-0.135,0.07 c-0.046,0.019-0.091,0.034-0.139,0.044c-0.051,0.01-0.099,0.012-0.151,0.012c-0.046,0-0.09-0.002-0.136-0.011 c-0.052-0.01-0.101-0.027-0.151-0.047c-0.045-0.018-0.086-0.039-0.127-0.066c-0.021-0.014-0.046-0.018-0.066-0.034l-7.739-6.192 c-0.333-0.268-0.388-0.754-0.121-1.088c0.153-0.19,0.378-0.29,0.605-0.29c0.169,0,0.34,0.055,0.483,0.169l6.482,5.186l0.005-20.06 c0-0.428,0.347-0.774,0.774-0.774c0.428,0,0.774,0.347,0.774,0.774l-0.005,20.06l6.482-5.185c0.144-0.114,0.313-0.169,0.484-0.169 c0.227,0,0.452,0.1,0.605,0.29C20.61,16.5,20.557,16.987,20.223,17.254z"/></g></svg>