<?xml version="1.0" encoding="UTF-8"?><svg xmlns="http://www.w3.org/2000/svg" width="1em" height="1em" viewBox="0 0 24 24"><path fill="currentColor" d="M12 3q.61 0 1.209.093q.599.094 1.147.294l-.78.803q-.384-.107-.761-.158q-.378-.051-.815-.051q-2.621 0-4.359 1.785t-1.737 4.53q0 1.852 1.638 4.39q1.639 2.537 4.458 4.99q2.82-2.453 4.458-4.99q1.638-2.538 1.638-4.39q0-.511-.073-.975q-.073-.463-.2-.911l.804-.804q.225.63.347 1.293q.122.663.122 1.397q0 2.062-1.565 4.557q-1.566 2.495-4.61 5.337q-.191.173-.434.26q-.244.087-.487.087q-.235 0-.47-.077q-.234-.077-.432-.25q-1.067-.981-2.163-2.175q-1.097-1.195-1.992-2.494q-.895-1.299-1.467-2.632q-.572-1.334-.572-2.613q0-3.173 2.066-5.234Q9.037 3 12 3m5.638 1.445l-.476-.476L12.03 9.1q-.073.074-.11.167q-.036.093-.036.193v.252q0 .175.114.289t.29.114h.251q.1 0 .193-.036q.093-.037.167-.11l5.13-5.13zm1.093-.307l.546-.546q.16-.16.188-.363t-.111-.344l-.239-.239q-.14-.14-.344-.111t-.363.188l-.546.546z"/></svg>