<?xml version="1.0" encoding="UTF-8"?><svg xmlns="http://www.w3.org/2000/svg" width="1em" height="1em" viewBox="0 0 24 24"><path fill="currentColor" d="M12 21.02q-3.525-3.118-5.31-5.815q-1.786-2.697-1.786-4.909q0-3.173 2.066-5.234Q9.037 3 12 3q.617 0 1.213.093q.595.094 1.143.294l-.78.803q-.384-.107-.765-.158q-.382-.051-.811-.051q-2.621 0-4.359 1.785t-1.737 4.53q0 1.852 1.638 4.39q1.639 2.537 4.458 4.99q2.82-2.453 4.458-4.99q1.638-2.538 1.638-4.39q0-.511-.073-.975q-.073-.463-.2-.911l.804-.804q.225.63.347 1.292q.122.662.122 1.398q0 2.212-1.785 4.909q-1.786 2.697-5.311 5.814m5.638-16.573l-.476-.477l-5.277 5.277v.87h.869l5.277-5.278zm1.093-.308l.938-.938l-.869-.87l-.938.94z"/></svg>