<?xml version="1.0" encoding="UTF-8"?><svg xmlns="http://www.w3.org/2000/svg" width="1em" height="1em" viewBox="0 0 24 24"><path fill="currentColor" d="M12 20.537q-.235 0-.47-.077q-.234-.077-.432-.25q-1.067-.981-2.163-2.175q-1.097-1.195-1.992-2.494q-.895-1.299-1.467-2.632q-.572-1.334-.572-2.613q0-3.173 2.066-5.234Q9.037 3 12 3q.617 0 1.213.093q.595.094 1.143.294L9.979 7.788q-.217.218-.348.523q-.131.304-.131.627v1.947q0 .67.472 1.143q.472.472 1.143.472h1.947q.323 0 .627-.13q.305-.132.523-.349l4.415-4.415q.225.63.347 1.292q.122.662.122 1.398q0 2.062-1.565 4.557q-1.566 2.495-4.61 5.337q-.198.173-.442.26q-.244.087-.479.087m5.638-16.09l.393.391L12.9 9.97q-.073.073-.164.11q-.092.036-.196.036h-.252q-.17 0-.287-.116t-.116-.287V9.46q0-.104.036-.196q.037-.09.11-.164l5.13-5.13zm1.093-.309l-.87-.869l.547-.546q.16-.16.363-.188t.344.111l.239.239q.14.14.111.344t-.188.363z"/></svg>