<?xml version="1.0" encoding="UTF-8"?><svg xmlns="http://www.w3.org/2000/svg" width="1em" height="1em" viewBox="0 0 24 24"><path fill="currentColor" d="M8.885 13.115h.719l3.9-3.905l-.714-.714l-3.905 3.9zm5.344-4.63l.584-.585q.087-.087.087-.186t-.087-.185l-.342-.342q-.086-.087-.185-.087t-.186.087l-.585.584zM12 19.677q2.82-2.454 4.458-4.991q1.638-2.538 1.638-4.39q0-2.744-1.737-4.53T12 3.981q-2.621 0-4.359 1.785t-1.737 4.53q0 1.852 1.638 4.39q1.639 2.537 4.458 4.99m0 1.343q-3.525-3.117-5.31-5.814q-1.786-2.697-1.786-4.909q0-3.173 2.066-5.234Q9.037 3 12 3t5.03 2.062q2.066 2.061 2.066 5.234q0 2.212-1.785 4.909q-1.786 2.697-5.311 5.814m0-10.904"/></svg>