<?xml version="1.0" encoding="UTF-8"?><svg xmlns="http://www.w3.org/2000/svg" width="1em" height="1em" viewBox="0 0 24 24"><path fill="currentColor" d="m13.504 9.21l-.714-.714l-3.76 3.754q-.072.073-.109.164q-.036.092-.036.196v.198q0 .123.092.215t.215.092h.198q.104 0 .196-.036q.09-.037.164-.11zm.725-.725l.584-.585q.087-.087.087-.186t-.087-.185l-.342-.342q-.086-.087-.185-.087t-.186.087l-.585.584zM12 20.555q-.235 0-.47-.076q-.234-.077-.432-.25q-1.067-.98-2.163-2.185q-1.097-1.204-1.992-2.493q-.895-1.29-1.467-2.633q-.572-1.343-.572-2.622q0-3.173 2.066-5.234Q9.037 3 12 3t5.03 2.062q2.066 2.061 2.066 5.234q0 1.279-.572 2.613q-.572 1.333-1.458 2.632q-.885 1.3-1.981 2.494q-1.097 1.194-2.164 2.175q-.198.173-.442.26q-.244.086-.479.086"/></svg>