<?xml version="1.0" encoding="UTF-8"?><svg xmlns="http://www.w3.org/2000/svg" width="1em" height="1em" viewBox="0 0 24 24"><path fill="currentColor" d="M11.997 21.385q-.668 0-1.14-.475q-.472-.474-.472-1.14h3.23q0 .67-.475 1.142q-.476.473-1.143.473M5 18.769v-1h1.615V9.846q0-1.96 1.24-3.447Q9.097 4.912 11 4.546V4q0-.417.291-.708q.291-.292.707-.292q.415 0 .709.292Q13 3.583 13 4v.546q.39.075.74.191q.348.117.675.3L9.846 9.562v5.592h5.573l1.966-1.966v4.581H19v1zm7.23-6v-2.21l5.333-5.307q.149-.129.306-.19q.157-.062.315-.062q.172 0 .338.064q.165.065.301.194l.925.944q.123.148.188.308q.064.16.064.319q0 .16-.052.322t-.2.31L14.44 12.77zm5.96-4.984l.925-.956l-.925-.944l-.95.95z"/></svg>