<?xml version="1.0" encoding="UTF-8"?><svg xmlns="http://www.w3.org/2000/svg" width="1em" height="1em" viewBox="0 0 24 24"><path fill="currentColor" d="M11.997 21.385q-.668 0-1.14-.475q-.472-.474-.472-1.14h3.23q0 .67-.475 1.142q-.476.473-1.143.473m6.503-2.616h-13q-.213 0-.356-.144Q5 18.481 5 18.27q0-.213.144-.356q.143-.144.356-.144h1.115V9.846q0-1.96 1.24-3.447Q9.097 4.912 11 4.546V4q0-.417.291-.708q.291-.292.707-.292q.415 0 .709.292Q13 3.583 13 4v.538q.308.039.59.13q.283.092.54.217q.216.103.333.303q.118.199.039.41q-.079.212-.268.288q-.19.076-.372.002q-.474-.225-.93-.325q-.455-.101-.932-.101q-1.823 0-3.104 1.28q-1.28 1.281-1.28 3.104v7.923h8.769v-3.692q0-.25.155-.375t.341-.125q.186 0 .345.125q.159.125.159.375v3.692H18.5q.213 0 .356.144t.144.357q0 .213-.144.356t-.356.143m-6.27-6.807v-1.074q0-.153.057-.296q.055-.144.186-.275l5.09-5.065q.149-.148.306-.2T18.184 5q.172 0 .338.064q.165.065.301.194l.925.944q.123.148.188.308q.064.16.064.319q0 .16-.062.322q-.061.162-.19.31l-5.065 5.066q-.131.13-.275.186q-.143.056-.296.056h-1.074q-.343 0-.575-.232q-.232-.232-.232-.575m6.884-5.133l-.925-.944zm-6 5.056h.95l3.468-3.473l-.47-.475l-.455-.489l-3.493 3.487zm3.948-3.948l-.455-.489l.925.964z"/></svg>