<?xml version="1.0" encoding="UTF-8"?><svg xmlns="http://www.w3.org/2000/svg" width="1em" height="1em" viewBox="0 0 24 24"><path fill="currentColor" d="M11.997 21.385q-.668 0-1.14-.475q-.472-.474-.472-1.14h3.23q0 .67-.475 1.142q-.476.473-1.143.473M5 18.769v-1h1.615V9.846q0-1.96 1.24-3.447Q9.097 4.912 11 4.546V3h2v1.546q.39.075.74.191q.348.117.675.3l-.767.761q-.385-.165-.792-.25q-.408-.086-.856-.086q-1.823 0-3.104 1.28q-1.28 1.281-1.28 3.104v7.923h8.769v-3.58l1-1v4.58H19v1zm7.23-6v-2.21l5.96-5.934l2.19 2.204l-5.94 5.94zm6.885-5.94l-.925-.944zm-6 5.056h.95l3.468-3.473l-.47-.475l-.455-.489l-3.493 3.487zm3.948-3.948l-.455-.489l.925.964z"/></svg>