<?xml version="1.0" encoding="UTF-8"?><svg xmlns="http://www.w3.org/2000/svg" width="1em" height="1em" viewBox="0 0 24 24"><path fill="currentColor" d="M11.997 21.385q-.668 0-1.14-.475q-.472-.474-.472-1.14h3.23q0 .67-.475 1.142q-.476.473-1.143.473m6.503-2.616h-13q-.213 0-.356-.144Q5 18.481 5 18.27q0-.213.144-.356q.143-.144.356-.144h1.115V9.846q0-1.96 1.24-3.447Q9.097 4.912 11 4.546V4q0-.417.291-.708q.291-.292.707-.292q.415 0 .709.292Q13 3.583 13 4v.546l.154.039l.154.038q.413.125.49.54q.075.416-.25.74l-3.217 3.193q-.222.22-.354.519q-.13.299-.13.618v3.305q0 .667.474 1.141q.474.475 1.14.475h3.306q.32 0 .62-.13q.3-.132.517-.349l.456-.456q.292-.292.658-.138q.367.155.367.567v3.121H18.5q.213 0 .356.144t.144.357q0 .213-.144.356t-.356.143m-6.27-6.807v-1.074q0-.161.057-.303q.055-.143.186-.268l5.09-5.065q.143-.123.298-.188q.156-.064.325-.064q.17 0 .343.072t.294.186l.925.944q.123.148.188.3q.064.153.064.327q0 .175-.064.342q-.065.167-.188.29l-5.065 5.066q-.131.13-.275.186q-.143.056-.296.056h-1.074q-.343 0-.575-.232q-.232-.232-.232-.575m5.96-4.177l.924-.956l-.925-.944l-.95.95z"/></svg>