<?xml version="1.0" encoding="UTF-8"?><svg xmlns="http://www.w3.org/2000/svg" width="1em" height="1em" viewBox="0 0 24 24"><path fill="currentColor" d="M10.5 20v-1.327q0-.367.205-.676q.205-.309.52-.507q1.092-.655 2.297-.977q1.205-.32 2.478-.32q1.273 0 2.478.32q1.205.322 2.297.977q.315.198.52.507q.205.309.205.676V20zM3 20V9.5l7-5.288l3.99 3.011q-1.298.552-2.086 1.743q-.789 1.192-.789 2.63q0 .814.242 1.55q.241.735.699 1.335q-.539.2-1.046.43q-.508.23-1.002.527q-.881.525-1.387 1.395t-.506 1.844V20zm13.002-5.904q-1.04 0-1.771-.728q-.731-.729-.731-1.77q0-1.04.729-1.771q.728-.73 1.769-.73q1.04 0 1.771.728q.731.728.731 1.769t-.728 1.771q-.729.731-1.77.731"/></svg>