<?xml version="1.0" encoding="UTF-8"?><svg xmlns="http://www.w3.org/2000/svg" width="1em" height="1em" viewBox="0 0 24 24"><path fill="currentColor" d="M3 20V9.5l7-5.288l3.99 3.011q-.278.094-.52.22q-.243.126-.474.303L10 5.462L4 10v9h4.115v1zm7.5 0v-1.327q0-.367.205-.676q.205-.309.52-.507q1.092-.655 2.297-.977q1.205-.32 2.478-.32q1.273 0 2.478.32q1.205.322 2.297.977q.315.198.52.507q.205.309.205.676V20zm1.035-1h8.93v-.538q-1.028-.597-2.148-.933q-1.119-.337-2.317-.337q-1.198 0-2.317.337q-1.12.336-2.148.933zm4.467-4.904q-1.04 0-1.771-.728q-.731-.729-.731-1.77q0-1.04.729-1.771q.728-.73 1.769-.73q1.04 0 1.771.728q.731.728.731 1.769t-.728 1.771q-.729.731-1.77.731m-.002-1q.617 0 1.059-.441q.441-.442.441-1.059t-.441-1.058q-.442-.442-1.059-.442t-1.059.442q-.441.44-.441 1.058q0 .617.441 1.059q.442.441 1.059.441M16 19"/></svg>