<?xml version="1.0" encoding="UTF-8"?><svg xmlns="http://www.w3.org/2000/svg" width="1em" height="1em" viewBox="0 0 24 24"><path fill="currentColor" d="M9.25 11.25q0 1.333.871 2.364T12 15.538q1.008-.892 1.879-1.924q.871-1.031.871-2.364q0-1.142-.803-1.946T12.003 8.5q-1.141 0-1.947.804T9.25 11.25M12 12q-.425 0-.712-.288T11 11q0-.425.288-.712T12 10q.425 0 .713.288T13 11q0 .425-.288.713T12 12m-4 6q-2.507 0-4.254-1.745T2 12.004q0-2.506 1.746-4.255Q5.493 6 8 6h8q2.507 0 4.254 1.745T22 11.996q0 2.506-1.746 4.255Q18.507 18 16 18zm0-1h8q2.075 0 3.538-1.463T21 12q0-2.075-1.463-3.537T16 7H8Q5.925 7 4.463 8.463T3 12q0 2.075 1.463 3.538T8 17m4-5"/></svg>