<?xml version="1.0" encoding="UTF-8"?><svg xmlns="http://www.w3.org/2000/svg" width="1em" height="1em" viewBox="0 0 24 24"><path fill="currentColor" d="M5.038 19.115V8.192q0-.44.3-.74q.299-.298.739-.298H9.5V4.652q0-.342.16-.705q.16-.362.396-.599l1.192-1.115q.306-.306.752-.306t.752.306l1.192 1.115q.237.237.396.6q.16.362.16.704v6.502h3.423q.44 0 .74.299q.299.299.299.74v6.922q0 .44-.3.74q-.299.299-.739.299H6.077q-.44 0-.74-.3q-.299-.298-.299-.739m1 .039h3v-3h-3zm0-4h3v-3h-3zm0-4h3v-3h-3zm4.462 8h3v-3h-3zm0-4h3v-3h-3zm0-4h3v-3h-3zm0-4h3v-3h-3zm4.462 12h3v-3h-3zm0-4h3v-3h-3z"/></svg>