<?xml version="1.0" encoding="UTF-8"?><svg xmlns="http://www.w3.org/2000/svg" width="1em" height="1em" viewBox="0 0 24 24"><path fill="currentColor" d="m18.792 16.273l-.719-.72q.425-.75.676-1.686q.251-.936.251-1.817q0-2.9-2.05-4.95T12 5.05q-.9 0-1.808.251q-.907.25-1.657.676l-.72-.72q.875-.524 1.755-.797q.88-.273 1.93-.398V2.6h1v1.462q3.125.292 5.16 2.327t2.328 5.161h1.462v1h-1.462q-.125 1.05-.398 1.95q-.273.898-.798 1.773M11.5 21.5v-1.462q-3.125-.292-5.16-2.327T4.011 12.55H2.55v-1h1.462q.125-1.28.551-2.41T5.67 7.134l-2.73-2.73l.707-.708l16.708 16.708l-.758.708l-2.68-2.731q-.876.679-2.005 1.106q-1.13.426-2.411.551V21.5zm.5-2.45q1.13 0 2.288-.414q1.158-.415 1.908-.974L6.388 7.854q-.56.75-.974 1.879Q5 10.862 5 12.05q0 2.9 2.05 4.95T12 19.05"/></svg>