<?xml version="1.0" encoding="UTF-8"?><svg xmlns="http://www.w3.org/2000/svg" width="1em" height="1em" viewBox="0 0 24 24"><path fill="currentColor" d="m18.792 16.273l-.719-.72q.425-.75.676-1.686q.251-.936.251-1.817q0-2.9-2.05-4.95T12 5.05q-.9 0-1.808.251q-.907.25-1.657.676l-.72-.72q.875-.524 1.755-.797q.88-.273 1.93-.398V3.1q0-.213.143-.357q.144-.143.357-.143t.357.143q.143.144.143.357v.962q3.125.292 5.16 2.327t2.328 5.161h.962q.213 0 .357.143q.143.144.143.357t-.143.357q-.144.143-.357.143h-.962q-.125 1.05-.398 1.95q-.273.898-.798 1.773M11.5 21v-.962q-3.125-.292-5.16-2.327T4.011 12.55H3.05q-.213 0-.357-.143q-.143-.144-.143-.357t.143-.357q.144-.143.357-.143h.962q.125-1.28.551-2.41T5.67 7.134L3.292 4.758q-.14-.14-.15-.345q-.01-.203.15-.363t.354-.16q.194 0 .354.16l15.975 15.975q.165.165.165.366q0 .201-.165.367q-.165.14-.366.153q-.201.012-.367-.153l-2.327-2.377q-.875.679-2.004 1.106q-1.13.426-2.411.551V21q0 .213-.143.357q-.144.143-.357.143t-.357-.143Q11.5 21.213 11.5 21m.5-1.95q1.13 0 2.288-.414q1.158-.415 1.908-.974L6.388 7.854q-.56.75-.974 1.879Q5 10.862 5 12.05q0 2.9 2.05 4.95T12 19.05"/></svg>