<?xml version="1.0" encoding="UTF-8"?><svg xmlns="http://www.w3.org/2000/svg" width="1em" height="1em" viewBox="0 0 24 24"><path fill="currentColor" d="m12 4.23l7 5.27V20H5V9.5zm-.002 10.27q1.04 0 1.771-.728q.731-.729.731-1.77q0-1.04-.728-1.771q-.729-.731-1.77-.731t-1.771.729q-.731.728-.731 1.769t.729 1.771q.728.731 1.769.731m.002-1q-.617 0-1.059-.441Q10.5 12.617 10.5 12t.441-1.059Q11.383 10.5 12 10.5t1.059.441q.441.442.441 1.059t-.441 1.059q-.442.441-1.059.441m-.051 4q-1.282 0-2.487.385q-1.206.384-2.274 1.115h9.527q-1.048-.73-2.266-1.115q-1.22-.385-2.5-.385M6 10v8.692q1.262-1.052 2.78-1.622q1.52-.57 3.162-.57q1.677 0 3.227.56q1.55.561 2.831 1.613V10l-6-4.5zm6 2"/></svg>