<?xml version="1.0" encoding="UTF-8"?><svg xmlns="http://www.w3.org/2000/svg" width="1em" height="1em" viewBox="0 0 24 24"><path fill="currentColor" d="M11.998 14.5q1.04 0 1.771-.728q.731-.729.731-1.77q0-1.04-.728-1.771q-.729-.731-1.77-.731t-1.771.729q-.731.728-.731 1.769t.729 1.771q.728.731 1.769.731m-.056 1.423q-1.45 0-2.812.451q-1.363.451-2.55 1.303q-.222.156-.401.36Q6 18.24 6 18.513v.064q0 .192.144.308q.144.115.356.115h11q.212 0 .356-.125t.144-.317v-.045q0-.273-.179-.486q-.179-.214-.402-.37q-1.206-.851-2.6-1.293q-1.393-.44-2.877-.44M6.615 20q-.666 0-1.14-.475Q5 19.051 5 18.385v-8.077q0-.384.172-.727q.171-.343.474-.566l5.385-4.057q.422-.323.966-.323q.543 0 .972.323l5.385 4.057q.303.223.474.566q.172.343.172.727v8.077q0 .666-.475 1.14q-.474.475-1.14.475z"/></svg>