<?xml version="1.0" encoding="UTF-8"?><svg xmlns="http://www.w3.org/2000/svg" width="1em" height="1em" viewBox="0 0 24 24"><path fill="currentColor" d="m21.11 22.53l-5.339-5.338q-.78.927-1.71 1.87q-.928.942-2.061 1.957q-3.525-3.117-5.31-5.814q-1.786-2.697-1.786-4.909q0-.896.192-1.708q.192-.811.533-1.538L1.887 3.308l.694-.733l19.242 19.242zm-3.525-7.763l-4.08-4.079q.068-.142.09-.28q.02-.139.02-.293q0-.67-.472-1.143Q12.671 8.5 12 8.5q-.154 0-.292.021q-.139.021-.281.089L7.448 4.63q.921-.77 2.079-1.2T12 3q2.963 0 5.03 2.062q2.066 2.061 2.066 5.234q0 1.008-.373 2.126q-.373 1.118-1.138 2.345"/></svg>