<?xml version="1.0" encoding="UTF-8"?><svg xmlns="http://www.w3.org/2000/svg" width="1em" height="1em" viewBox="0 0 24 24"><path fill="currentColor" d="M13.615 10.115q0-.666-.474-1.14Q12.666 8.5 12 8.5q-.154 0-.292.021q-.139.021-.281.089l2.079 2.078q.067-.142.088-.28q.021-.139.021-.293m3.97 4.652l-.739-.738q.606-1.05.928-1.991q.322-.942.322-1.746q0-2.74-1.737-4.526T12 3.981q-1.114 0-2.089.347q-.974.347-1.769.997l-.694-.694Q8.37 3.86 9.527 3.43T12 3q2.963 0 5.03 2.062q2.066 2.061 2.066 5.228q0 1.014-.373 2.132t-1.138 2.345m-2.502 1.737L6.388 7.81q-.223.569-.353 1.182q-.131.614-.131 1.304q0 1.852 1.638 4.39q1.639 2.537 4.458 4.99q.88-.766 1.655-1.57q.774-.802 1.428-1.602m6.027 6.027l-5.339-5.339q-.78.927-1.71 1.87q-.928.942-2.061 1.957q-3.525-3.117-5.31-5.814q-1.786-2.697-1.786-4.909q0-.895.19-1.707q.191-.811.535-1.539L1.887 3.308l.694-.733l19.242 19.242zM12.494 9.677"/></svg>