<svg xmlns="http://www.w3.org/2000/svg" width="224" height="224" viewBox="0 0 14 14"><g fill="none" stroke="currentColor" stroke-linecap="round" stroke-linejoin="round"><path d="M5 7.25a.25.25 0 0 1 0-.5m0 .5a.25.25 0 0 0 0-.5m4 .5a.25.25 0 0 1 0-.5m0 .5a.25.25 0 0 0 0-.5m-4.5 6.46a4 4 0 0 0 1.5.29h2a4 4 0 0 0 1.5-.29M2 7.5v-7l4.153 3.056M12 7.5v-7L7.86 3.556"/><path d="M4.019 4.5c.732-.614 1.796-1 2.981-1c1.185 0 2.25.386 2.982 1M.5 9.5H4m0 2L1 13m9-3.5h3.5m-3.5 2l3 1.5M7.75 9.5h-1.5L7 10z"/></g></svg>